<!--?xml version="1.0" standalone="no"?-->              <svg id="sw-js-blob-svg" viewBox="0 0 100 100" xmlns="http://www.w3.org/2000/svg" version="1.1">                    <defs>                         <linearGradient id="sw-gradient" x1="0" x2="1" y1="1" y2="0">                            <stop id="stop1" stop-color="rgb(248, 55, 55)" offset="0%"></stop>                            <stop id="stop2" stop-color="rgb(31, 68, 251)" offset="100%"></stop>                        </linearGradient>                    </defs>                <path fill="url(#sw-gradient)" d="M14.4,-14.1C19.9,-12.6,26.3,-9.2,30.2,-3C34,3.2,35.3,12.1,30.8,15.8C26.3,19.4,16.1,17.8,7.2,21.9C-1.7,26.1,-9.2,36,-16.2,36.8C-23.2,37.6,-29.7,29.2,-30.8,20.9C-31.9,12.5,-27.7,4.2,-25.2,-3.5C-22.7,-11.1,-21.9,-18.1,-18,-19.9C-14,-21.6,-7,-18.1,-1.3,-16.6C4.5,-15.1,8.9,-15.5,14.4,-14.1Z" width="100%" height="100%" transform="translate(50 50)" stroke-width="0" style="transition: 0.3s;"></path>              </svg>